<svg width="92" height="77" viewBox="0 0 92 77" fill="none" xmlns="http://www.w3.org/2000/svg">
<rect x="82" y="38.8365" width="2.638" height="1.94" transform="rotate(-155 82 38.8365)" fill="#4BC8EF" fill-opacity="0.35"/>
<rect x="89" y="71.8365" width="5.638" height="2.94" transform="rotate(115 89 71.8365)" fill="#C9FCBE" fill-opacity="0.65"/>
<circle cx="64.085" cy="34.085" r="1.085" fill="#DCBCFA" fill-opacity="0.9"/>
<circle cx="16.585" cy="32.4215" r="1.585" fill="#03A3F5" fill-opacity="0.85"/>
<circle cx="73.585" cy="60.4215" r="1.585" fill="#480CA7" fill-opacity="0.75"/>
<path d="M28.1176 21.9765L31.8756 22.0421L29.9398 25.2638L28.1176 21.9765Z" fill="#FC9E1C" fill-opacity="0.35"/>
<path d="M36.9248 38.2021L35.3896 36.1648L36.8528 34.0751L39.2923 34.821L39.3368 37.3716L36.9248 38.2021Z" fill="#F54721" fill-opacity="0.9"/>
<path d="M30.8199 20.6547L33.8217 21.2927L33.1836 24.2945L30.1819 23.6565L30.8199 20.6547Z" fill="#755FFE" fill-opacity="0.9"/>
<path d="M37.86 18.0997L36.4568 17.2229L37.3336 15.8197L38.7368 16.6965L37.86 18.0997Z" fill="#9DED1A" fill-opacity="0.6"/>
<path d="M63 51.5065L60.33 54.1765L57.66 51.5065L60.33 48.8365L63 51.5065Z" fill="#FF21FB" fill-opacity="0.65"/>
<path d="M48.5981 2.75061L50.6083 1.18006L52.7232 2.60656L52.0201 5.05873L49.4706 5.14775L48.5981 2.75061Z" fill="#FC9E1C" fill-opacity="0.75"/>
<path d="M29.9077 48.4173L29.9522 47.5684L29.1586 47.2637L29.9797 47.0437L30.0242 46.1948L30.4872 46.9078L31.3082 46.6877L30.7733 47.3484L31.2363 48.0613L30.4427 47.7566L29.9077 48.4173Z" fill="#F54721" fill-opacity="0.9"/>
<path d="M74.0078 40.2165L74.1923 39.3249L73.6356 38.6043L74.5273 38.7889L75.2478 38.2321L75.0632 39.1238L75.62 39.8443L74.7283 39.6598L74.0078 40.2165Z" fill="#9DED1A" fill-opacity="0.35"/>
<path d="M89.8444 40.6535L89.7114 39.8139L88.8718 39.681L89.6292 39.295L89.4963 38.4554L90.0973 39.0565L90.8547 38.6706L90.4688 39.428L91.0699 40.0291L90.2303 39.8961L89.8444 40.6535Z" fill="#9DED1A" fill-opacity="0.75"/>
<path d="M86.403 21.3248L85.6152 20.291L84.3177 20.216L85.3515 19.4283L85.4264 18.1308L86.2142 19.1646L87.5117 19.2395L86.4779 20.0272L86.403 21.3248Z" fill="#BA3E03" fill-opacity="0.65"/>
<path d="M81.7355 18.6827L83.1264 18.0944L82.5834 16.6852L83.7884 17.5956L84.7373 16.4208L84.5513 17.9194L86.0432 18.1538L84.6523 18.7421L85.1953 20.1513L83.9904 19.241L83.0415 20.4158L83.2274 18.9171L81.7355 18.6827Z" fill="#03A3F5"/>
<path d="M31.6579 10.7177L32.3822 10.1658L32.4347 9.25672L32.9866 9.98101L33.8957 10.0335L33.1714 10.5854L33.1189 11.4945L32.567 10.7702L31.6579 10.7177Z" fill="#FFED36" fill-opacity="0.6"/>
<circle cx="78.585" cy="61.585" r="0.585" fill="#FF21FB" fill-opacity="0.6"/>
<circle cx="1.085" cy="48.085" r="1.085" fill="#F54721" fill-opacity="0.75"/>
<circle cx="53.585" cy="47.585" r="0.585" fill="#C9FCBE" fill-opacity="0.75"/>
<circle cx="24.585" cy="69.585" r="0.585" fill="#F62584" fill-opacity="0.6"/>
<circle cx="48.085" cy="38.085" r="1.085" fill="#9DED1A" fill-opacity="0.75"/>
<path d="M44.9527 45.8209L45.5516 48.902L42.8064 50.4237L40.5108 48.2831L41.8373 45.4384L44.9527 45.8209Z" fill="#C9FCBE" fill-opacity="0.9"/>
</svg>
