<svg width="56" height="56" viewBox="0 0 56 56" fill="none" xmlns="http://www.w3.org/2000/svg">
<rect width="56" height="56" rx="10" fill="#EDEDED"/>
<g clip-path="url(#clip0_280_186)">
<path d="M41.6935 22.629H34.1859C34.8854 22.3161 35.5351 21.8997 36.1135 21.3933C36.5147 21.0323 36.8378 20.5913 37.0626 20.098C37.2874 19.6047 37.4091 19.0697 37.42 18.5265C37.4373 17.9246 37.3329 17.3254 37.1132 16.7658C36.8935 16.2062 36.5632 15.6979 36.1425 15.2721C35.7217 14.8463 35.2195 14.512 34.6665 14.2896C34.1135 14.0673 33.5215 13.9617 32.9267 13.9792C32.39 13.9902 31.8614 14.1133 31.3739 14.3409C30.8865 14.5684 30.4507 14.8954 30.094 15.3014C29.192 16.3316 28.6242 17.6739 28.2625 18.9606C27.9038 17.6739 27.3361 16.3347 26.431 15.3014C26.0743 14.8954 25.6385 14.5684 25.1511 14.3409C24.6636 14.1133 24.135 13.9902 23.5983 13.9792C23.0035 13.9617 22.4115 14.0673 21.8585 14.2896C21.3055 14.512 20.8033 14.8463 20.3825 15.2721C19.9618 15.6979 19.6315 16.2062 19.4118 16.7658C19.1921 17.3254 19.0877 17.9246 19.105 18.5265C19.1159 19.0697 19.2376 19.6047 19.4624 20.098C19.6872 20.5913 20.0103 21.0323 20.4115 21.3933C20.9899 21.8997 21.6396 22.3161 22.3391 22.629H14.8315C14.3458 22.629 13.8799 22.8243 13.5364 23.1719C13.193 23.5195 13 23.991 13 24.4826V29.4253C13 29.9169 13.193 30.3884 13.5364 30.736C13.8799 31.0836 14.3458 31.2789 14.8315 31.2789H15.442V41.7823C15.442 42.2739 15.635 42.7453 15.9784 43.0929C16.3219 43.4405 16.7878 43.6358 17.2735 43.6358H39.2515C39.7372 43.6358 40.2031 43.4405 40.5466 43.0929C40.89 42.7453 41.083 42.2739 41.083 41.7823V31.2789H41.6935C42.1792 31.2789 42.6451 31.0836 42.9886 30.736C43.332 30.3884 43.525 29.9169 43.525 29.4253V24.4826C43.525 23.991 43.332 23.5195 42.9886 23.1719C42.6451 22.8243 42.1792 22.629 41.6935 22.629ZM31.0098 16.12C31.2562 15.8411 31.557 15.6168 31.8932 15.461C32.2293 15.3053 32.5937 15.2215 32.9634 15.2149H33.0565C33.4769 15.2153 33.893 15.301 34.2802 15.4669C34.6674 15.6328 35.0178 15.8756 35.3107 16.1808C35.6037 16.4861 35.8332 16.8476 35.9858 17.2441C36.1383 17.6407 36.2108 18.0641 36.199 18.4894C36.1924 18.8635 36.1095 19.2322 35.9556 19.5724C35.8017 19.9126 35.5801 20.217 35.3046 20.4666C33.4594 22.1193 30.2573 22.507 28.8944 22.5966C28.989 21.2281 29.3706 17.9952 31.0098 16.12ZM20.326 18.4894C20.3142 18.0641 20.3867 17.6407 20.5393 17.2441C20.6918 16.8476 20.9213 16.4861 21.2143 16.1808C21.5072 15.8756 21.8576 15.6328 22.2448 15.4669C22.632 15.301 23.0481 15.2153 23.4685 15.2149H23.5617C23.9313 15.2215 24.2957 15.3053 24.6318 15.461C24.968 15.6168 25.2688 15.8411 25.5153 16.12C27.1499 17.9874 27.5314 21.2281 27.6199 22.6074C26.2631 22.5178 23.061 22.1301 21.2097 20.4774C20.9348 20.2257 20.7144 19.9191 20.5623 19.577C20.4103 19.2349 20.3298 18.8646 20.326 18.4894ZM14.221 29.4253V24.4826C14.221 24.3187 14.2853 24.1616 14.3998 24.0457C14.5143 23.9298 14.6696 23.8647 14.8315 23.8647H27.652V30.0432H14.8315C14.6696 30.0432 14.5143 29.9781 14.3998 29.8622C14.2853 29.7464 14.221 29.5892 14.221 29.4253ZM16.663 41.7823V31.2789H27.652V42.4001H17.2735C17.1116 42.4001 16.9563 42.335 16.8418 42.2192C16.7273 42.1033 16.663 41.9462 16.663 41.7823ZM39.862 41.7823C39.862 41.9462 39.7977 42.1033 39.6832 42.2192C39.5687 42.335 39.4134 42.4001 39.2515 42.4001H28.873V31.2789H39.862V41.7823ZM42.304 29.4253C42.304 29.5892 42.2397 29.7464 42.1252 29.8622C42.0107 29.9781 41.8554 30.0432 41.6935 30.0432H28.873V23.8647H41.6935C41.8554 23.8647 42.0107 23.9298 42.1252 24.0457C42.2397 24.1616 42.304 24.3187 42.304 24.4826V29.4253Z" fill="black"/>
</g>
<defs>
<clipPath id="clip0_280_186">
<rect width="37" height="38" fill="white" transform="translate(9 14)"/>
</clipPath>
</defs>
</svg>
