<svg width="56" height="56" viewBox="0 0 56 56" fill="none" xmlns="http://www.w3.org/2000/svg">
<rect width="56" height="56" rx="10" fill="#EDEDED"/>
<path d="M38.4754 19.8075H38.4092C38.128 17.3822 36.9664 15.145 35.1452 13.5211C33.3239 11.8972 30.9701 11 28.5312 11C26.0924 11 23.7386 11.8972 21.9173 13.5211C20.0961 15.145 18.9345 17.3822 18.6533 19.8075H18.5871C17.1219 19.8075 15.7167 20.3902 14.6806 21.4274C13.6445 22.4646 13.0625 23.8713 13.0625 25.3381C13.0625 26.8049 13.6445 28.2117 14.6806 29.2489C15.7167 30.2861 17.1219 30.8687 18.5871 30.8687H20.7969V20.9136C20.7969 18.8601 21.6117 16.8907 23.0622 15.4386C24.5127 13.9865 26.48 13.1708 28.5312 13.1708C30.5825 13.1708 32.5498 13.9865 34.0003 15.4386C35.4508 16.8907 36.2656 18.8601 36.2656 20.9136V31.9749C36.2649 32.9883 35.9166 33.9708 35.2791 34.758C34.6415 35.5453 33.7534 36.0895 32.7631 36.2998C32.4681 35.2642 31.806 34.3719 30.9009 33.79C29.9958 33.2081 28.9097 32.9767 27.8463 33.1391C26.783 33.3015 25.8152 33.8465 25.1246 34.6721C24.4339 35.4977 24.0677 36.5471 24.0945 37.6236C24.1214 38.7001 24.5396 39.7299 25.2706 40.5198C26.0016 41.3098 26.9953 41.8058 28.0655 41.9148C29.1356 42.0238 30.2088 41.7383 31.0837 41.1119C31.9587 40.4855 32.5754 39.5611 32.8183 38.5121C34.3862 38.2793 35.8189 37.492 36.8567 36.2927C37.8945 35.0934 38.4688 33.5616 38.4754 31.9749V30.8687C39.9406 30.8687 41.3458 30.2861 42.3819 29.2489C43.418 28.2117 44 26.8049 44 25.3381C44 23.8713 43.418 22.4646 42.3819 21.4274C41.3458 20.3902 39.9406 19.8075 38.4754 19.8075ZM15.2723 25.3381C15.2723 24.458 15.6216 23.614 16.2432 22.9917C16.8648 22.3694 17.7079 22.0198 18.5871 22.0198V28.6565C17.7079 28.6565 16.8648 28.3069 16.2432 27.6846C15.6216 27.0623 15.2723 26.2182 15.2723 25.3381ZM28.5312 39.7177C28.0942 39.7177 27.6669 39.588 27.3035 39.3449C26.9401 39.1018 26.6569 38.7563 26.4896 38.3521C26.3224 37.9478 26.2786 37.503 26.3639 37.0739C26.4492 36.6448 26.6596 36.2506 26.9687 35.9412C27.2777 35.6318 27.6715 35.4211 28.1001 35.3357C28.5288 35.2504 28.9731 35.2942 29.3769 35.4616C29.7807 35.6291 30.1258 35.9126 30.3686 36.2764C30.6115 36.6402 30.7411 37.0679 30.7411 37.5055C30.7411 38.0922 30.5083 38.6549 30.0938 39.0698C29.6794 39.4847 29.1173 39.7177 28.5312 39.7177ZM38.4754 28.6565V22.0198C39.3546 22.0198 40.1977 22.3694 40.8193 22.9917C41.441 23.614 41.7902 24.458 41.7902 25.3381C41.7902 26.2182 41.441 27.0623 40.8193 27.6846C40.1977 28.3069 39.3546 28.6565 38.4754 28.6565Z" fill="black"/>
</svg>
