<svg width="107" height="30" viewBox="0 0 107 30" fill="none" xmlns="http://www.w3.org/2000/svg">
<path d="M11.56 0.18V0.979999C10.6533 1.00667 9.96 1.11333 9.48 1.3C9.02667 1.46 8.72 1.78 8.56 2.26C8.4 2.71333 8.32 3.43333 8.32 4.42V24.42C8.32 25.3267 8.38667 26.0067 8.52 26.46C8.68 26.9133 8.97333 27.22 9.4 27.38C9.85333 27.5133 10.4933 27.58 11.32 27.58H13.92C15.0667 27.58 16.0267 27.42 16.8 27.1C17.6 26.78 18.2667 26.3 18.8 25.66C19.3333 25.02 19.7467 24.1933 20.04 23.18C20.3333 22.1667 20.56 20.98 20.72 19.62H21.64C21.56 20.4733 21.52 21.5933 21.52 22.98C21.52 23.5133 21.5333 24.3 21.56 25.34C21.6133 26.3533 21.6933 27.4067 21.8 28.5C20.44 28.4467 18.9067 28.42 17.2 28.42C15.4933 28.3933 13.9733 28.38 12.64 28.38C12.0267 28.38 11.24 28.38 10.28 28.38C9.32 28.38 8.28 28.3933 7.16 28.42C6.06667 28.42 4.94667 28.4333 3.8 28.46C2.68 28.46 1.6 28.4733 0.56 28.5V27.7C1.46667 27.6467 2.14667 27.54 2.6 27.38C3.05333 27.22 3.34667 26.9 3.48 26.42C3.64 25.94 3.72 25.22 3.72 24.26V4.42C3.72 3.43333 3.64 2.71333 3.48 2.26C3.34667 1.78 3.04 1.46 2.56 1.3C2.10667 1.11333 1.44 1.00667 0.56 0.979999V0.18C1.17333 0.206666 1.96 0.233332 2.92 0.259999C3.90667 0.286665 4.96 0.299998 6.08 0.299998C7.09333 0.299998 8.09333 0.286665 9.08 0.259999C10.0933 0.233332 10.92 0.206666 11.56 0.18ZM42.6681 7.42V24.18C42.6681 25.38 42.8681 26.2733 43.2681 26.86C43.6948 27.42 44.4548 27.7 45.5481 27.7V28.54C44.7215 28.46 43.8948 28.42 43.0681 28.42C42.1881 28.42 41.3481 28.46 40.5481 28.54C39.7481 28.62 39.0148 28.7667 38.3481 28.98V24.62C37.6815 26.22 36.7481 27.3667 35.5481 28.06C34.3748 28.7267 33.1348 29.06 31.8281 29.06C30.8415 29.06 30.0015 28.9133 29.3081 28.62C28.6148 28.3533 28.0415 27.9933 27.5881 27.54C27.1081 27.0067 26.7748 26.3267 26.5881 25.5C26.4015 24.6467 26.3081 23.58 26.3081 22.3V12.22C26.3081 11.02 26.1081 10.14 25.7081 9.58C25.3081 8.99333 24.5481 8.7 23.4281 8.7V7.86C24.2815 7.94 25.1081 7.98 25.9081 7.98C26.7881 7.98 27.6281 7.94 28.4281 7.86C29.2281 7.75333 29.9615 7.60667 30.6281 7.42V23.42C30.6281 24.1933 30.6815 24.9 30.7881 25.54C30.8948 26.18 31.1481 26.6867 31.5481 27.06C31.9481 27.4333 32.5881 27.62 33.4681 27.62C34.4015 27.62 35.2281 27.34 35.9481 26.78C36.6948 26.22 37.2815 25.46 37.7081 24.5C38.1348 23.54 38.3481 22.46 38.3481 21.26V12.22C38.3481 11.02 38.1481 10.14 37.7481 9.58C37.3481 8.99333 36.5881 8.7 35.4681 8.7V7.86C36.3215 7.94 37.1481 7.98 37.9481 7.98C38.8281 7.98 39.6681 7.94 40.4681 7.86C41.2681 7.75333 42.0015 7.60667 42.6681 7.42ZM54.4628 1.26V7.9H59.9828V8.7H54.4628V24.42C54.4628 25.5133 54.6628 26.2867 55.0628 26.74C55.4628 27.1933 56.0361 27.42 56.7828 27.42C57.4761 27.42 58.0895 27.14 58.6228 26.58C59.1828 26.02 59.6628 25.0733 60.0628 23.74L60.8228 24.02C60.5028 25.4333 59.9295 26.6333 59.1028 27.62C58.3028 28.58 57.1161 29.06 55.5428 29.06C54.6361 29.06 53.8761 28.94 53.2628 28.7C52.6495 28.4867 52.1161 28.1667 51.6628 27.74C51.0761 27.1267 50.6761 26.3933 50.4628 25.54C50.2495 24.6867 50.1428 23.5533 50.1428 22.14V8.7H46.4628V7.9H50.1428V2.06C50.9695 2.03333 51.7428 1.96666 52.4628 1.86C53.1828 1.72667 53.8495 1.52667 54.4628 1.26ZM71.5253 7.3C73.312 7.3 74.8986 7.67333 76.2853 8.42C77.672 9.16667 78.7786 10.34 79.6053 11.94C80.432 13.54 80.8453 15.6333 80.8453 18.22C80.8453 20.8067 80.432 22.9 79.6053 24.5C78.7786 26.0733 77.672 27.2333 76.2853 27.98C74.8986 28.7 73.312 29.06 71.5253 29.06C69.7653 29.06 68.1786 28.7 66.7653 27.98C65.352 27.2333 64.232 26.0733 63.4053 24.5C62.6053 22.9 62.2053 20.8067 62.2053 18.22C62.2053 15.6333 62.6053 13.54 63.4053 11.94C64.232 10.34 65.352 9.16667 66.7653 8.42C68.1786 7.67333 69.7653 7.3 71.5253 7.3ZM71.5253 8.1C70.1386 8.1 69.0053 8.9 68.1253 10.5C67.2453 12.0733 66.8053 14.6467 66.8053 18.22C66.8053 21.7933 67.2453 24.3667 68.1253 25.94C69.0053 27.4867 70.1386 28.26 71.5253 28.26C72.8853 28.26 74.0053 27.4867 74.8853 25.94C75.792 24.3667 76.2453 21.7933 76.2453 18.22C76.2453 14.6467 75.792 12.0733 74.8853 10.5C74.0053 8.9 72.8853 8.1 71.5253 8.1ZM97.5938 7.3C98.6604 7.3 99.5271 7.44667 100.194 7.74C100.887 8.00667 101.46 8.38 101.914 8.86C102.394 9.36667 102.727 10.02 102.914 10.82C103.127 11.62 103.234 12.7 103.234 14.06V24.78C103.234 25.9 103.447 26.66 103.874 27.06C104.327 27.46 105.074 27.66 106.114 27.66V28.5C105.66 28.4733 104.954 28.4467 103.994 28.42C103.034 28.3667 102.087 28.34 101.154 28.34C100.247 28.34 99.3404 28.3667 98.4338 28.42C97.5538 28.4467 96.8871 28.4733 96.4338 28.5V27.66C97.3404 27.66 97.9804 27.46 98.3538 27.06C98.7271 26.66 98.9138 25.9 98.9138 24.78V12.94C98.9138 12.1667 98.8471 11.4733 98.7138 10.86C98.5804 10.22 98.3004 9.71333 97.8738 9.34C97.4471 8.94 96.8071 8.74 95.9538 8.74C94.9671 8.74 94.0871 9.02 93.3138 9.58C92.5671 10.14 91.9671 10.9133 91.5138 11.9C91.0871 12.86 90.8738 13.94 90.8738 15.14V24.78C90.8738 25.9 91.0604 26.66 91.4338 27.06C91.8338 27.46 92.4738 27.66 93.3538 27.66V28.5C92.9271 28.4733 92.2738 28.4467 91.3938 28.42C90.5404 28.3667 89.6471 28.34 88.7138 28.34C87.8071 28.34 86.8604 28.3667 85.8738 28.42C84.8871 28.4467 84.1538 28.4733 83.6738 28.5V27.66C84.7137 27.66 85.4471 27.46 85.8738 27.06C86.3271 26.66 86.5538 25.9 86.5538 24.78V12.22C86.5538 11.02 86.3538 10.14 85.9538 9.58C85.5538 8.99333 84.7938 8.7 83.6738 8.7V7.86C84.5271 7.94 85.3538 7.98 86.1538 7.98C87.0604 7.98 87.9004 7.94 88.6738 7.86C89.4738 7.75333 90.2071 7.60667 90.8738 7.42V11.78C91.5671 10.1267 92.5138 8.96667 93.7138 8.3C94.9404 7.63333 96.2338 7.3 97.5938 7.3Z" fill="black"/>
</svg>
