<svg width="87" height="39" viewBox="0 0 87 39" fill="none" xmlns="http://www.w3.org/2000/svg">
<path d="M9.42 10.76V11.36C8.74 11.38 8.22 11.46 7.86 11.6C7.52 11.72 7.29 11.96 7.17 12.32C7.05 12.66 6.99 13.2 6.99 13.94V28.94C6.99 29.62 7.04 30.13 7.14 30.47C7.26 30.81 7.48 31.04 7.8 31.16C8.14 31.26 8.62 31.31 9.24 31.31H11.19C12.05 31.31 12.77 31.19 13.35 30.95C13.95 30.71 14.45 30.35 14.85 29.87C15.25 29.39 15.56 28.77 15.78 28.01C16 27.25 16.17 26.36 16.29 25.34H16.98C16.92 25.98 16.89 26.82 16.89 27.86C16.89 28.26 16.9 28.85 16.92 29.63C16.96 30.39 17.02 31.18 17.1 32C16.08 31.96 14.93 31.94 13.65 31.94C12.37 31.92 11.23 31.91 10.23 31.91C9.77 31.91 9.18 31.91 8.46 31.91C7.74 31.91 6.96 31.92 6.12 31.94C5.3 31.94 4.46 31.95 3.6 31.97C2.76 31.97 1.95 31.98 1.17 32V31.4C1.85 31.36 2.36 31.28 2.7 31.16C3.04 31.04 3.26 30.8 3.36 30.44C3.48 30.08 3.54 29.54 3.54 28.82V13.94C3.54 13.2 3.48 12.66 3.36 12.32C3.26 11.96 3.03 11.72 2.67 11.6C2.33 11.46 1.83 11.38 1.17 11.36V10.76C1.63 10.78 2.22 10.8 2.94 10.82C3.68 10.84 4.47 10.85 5.31 10.85C6.07 10.85 6.82 10.84 7.56 10.82C8.32 10.8 8.94 10.78 9.42 10.76ZM32.7511 16.19V28.76C32.7511 29.66 32.9011 30.33 33.2011 30.77C33.5211 31.19 34.0911 31.4 34.9111 31.4V32.03C34.2911 31.97 33.6711 31.94 33.0511 31.94C32.3911 31.94 31.7611 31.97 31.1611 32.03C30.5611 32.09 30.0111 32.2 29.5111 32.36V29.09C29.0111 30.29 28.3111 31.15 27.4111 31.67C26.5311 32.17 25.6011 32.42 24.6211 32.42C23.8811 32.42 23.2511 32.31 22.7311 32.09C22.2111 31.89 21.7811 31.62 21.4411 31.28C21.0811 30.88 20.8311 30.37 20.6911 29.75C20.5511 29.11 20.4811 28.31 20.4811 27.35V19.79C20.4811 18.89 20.3311 18.23 20.0311 17.81C19.7311 17.37 19.1611 17.15 18.3211 17.15V16.52C18.9611 16.58 19.5811 16.61 20.1811 16.61C20.8411 16.61 21.4711 16.58 22.0711 16.52C22.6711 16.44 23.2211 16.33 23.7211 16.19V28.19C23.7211 28.77 23.7611 29.3 23.8411 29.78C23.9211 30.26 24.1111 30.64 24.4111 30.92C24.7111 31.2 25.1911 31.34 25.8511 31.34C26.5511 31.34 27.1711 31.13 27.7111 30.71C28.2711 30.29 28.7111 29.72 29.0311 29C29.3511 28.28 29.5111 27.47 29.5111 26.57V19.79C29.5111 18.89 29.3611 18.23 29.0611 17.81C28.7611 17.37 28.1911 17.15 27.3511 17.15V16.52C27.9911 16.58 28.6111 16.61 29.2111 16.61C29.8711 16.61 30.5011 16.58 31.1011 16.52C31.7011 16.44 32.2511 16.33 32.7511 16.19ZM41.5971 11.57V16.55H45.7371V17.15H41.5971V28.94C41.5971 29.76 41.7471 30.34 42.0471 30.68C42.3471 31.02 42.7771 31.19 43.3371 31.19C43.8571 31.19 44.3171 30.98 44.7171 30.56C45.1371 30.14 45.4971 29.43 45.7971 28.43L46.3671 28.64C46.1271 29.7 45.6971 30.6 45.0771 31.34C44.4771 32.06 43.5871 32.42 42.4071 32.42C41.7271 32.42 41.1571 32.33 40.6971 32.15C40.2371 31.99 39.8371 31.75 39.4971 31.43C39.0571 30.97 38.7571 30.42 38.5971 29.78C38.4371 29.14 38.3571 28.29 38.3571 27.23V17.15H35.5971V16.55H38.3571V12.17C38.9771 12.15 39.5571 12.1 40.0971 12.02C40.6371 11.92 41.1371 11.77 41.5971 11.57ZM54.394 16.1C55.734 16.1 56.924 16.38 57.964 16.94C59.004 17.5 59.834 18.38 60.454 19.58C61.074 20.78 61.384 22.35 61.384 24.29C61.384 26.23 61.074 27.8 60.454 29C59.834 30.18 59.004 31.05 57.964 31.61C56.924 32.15 55.734 32.42 54.394 32.42C53.074 32.42 51.884 32.15 50.824 31.61C49.764 31.05 48.924 30.18 48.304 29C47.704 27.8 47.404 26.23 47.404 24.29C47.404 22.35 47.704 20.78 48.304 19.58C48.924 18.38 49.764 17.5 50.824 16.94C51.884 16.38 53.074 16.1 54.394 16.1ZM54.394 16.7C53.354 16.7 52.504 17.3 51.844 18.5C51.184 19.68 50.854 21.61 50.854 24.29C50.854 26.97 51.184 28.9 51.844 30.08C52.504 31.24 53.354 31.82 54.394 31.82C55.414 31.82 56.254 31.24 56.914 30.08C57.594 28.9 57.934 26.97 57.934 24.29C57.934 21.61 57.594 19.68 56.914 18.5C56.254 17.3 55.414 16.7 54.394 16.7ZM73.9453 16.1C74.7453 16.1 75.3953 16.21 75.8953 16.43C76.4153 16.63 76.8453 16.91 77.1853 17.27C77.5453 17.65 77.7953 18.14 77.9353 18.74C78.0953 19.34 78.1753 20.15 78.1753 21.17V29.21C78.1753 30.05 78.3353 30.62 78.6553 30.92C78.9953 31.22 79.5553 31.37 80.3353 31.37V32C79.9953 31.98 79.4653 31.96 78.7453 31.94C78.0253 31.9 77.3153 31.88 76.6153 31.88C75.9353 31.88 75.2553 31.9 74.5753 31.94C73.9153 31.96 73.4153 31.98 73.0753 32V31.37C73.7553 31.37 74.2353 31.22 74.5153 30.92C74.7953 30.62 74.9353 30.05 74.9353 29.21V20.33C74.9353 19.75 74.8853 19.23 74.7853 18.77C74.6853 18.29 74.4753 17.91 74.1553 17.63C73.8353 17.33 73.3553 17.18 72.7153 17.18C71.9753 17.18 71.3153 17.39 70.7353 17.81C70.1753 18.23 69.7253 18.81 69.3853 19.55C69.0653 20.27 68.9053 21.08 68.9053 21.98V29.21C68.9053 30.05 69.0453 30.62 69.3253 30.92C69.6253 31.22 70.1053 31.37 70.7653 31.37V32C70.4453 31.98 69.9553 31.96 69.2953 31.94C68.6553 31.9 67.9853 31.88 67.2853 31.88C66.6053 31.88 65.8953 31.9 65.1553 31.94C64.4153 31.96 63.8653 31.98 63.5053 32V31.37C64.2853 31.37 64.8353 31.22 65.1553 30.92C65.4953 30.62 65.6653 30.05 65.6653 29.21V19.79C65.6653 18.89 65.5153 18.23 65.2153 17.81C64.9153 17.37 64.3453 17.15 63.5053 17.15V16.52C64.1453 16.58 64.7653 16.61 65.3653 16.61C66.0453 16.61 66.6753 16.58 67.2553 16.52C67.8553 16.44 68.4053 16.33 68.9053 16.19V19.46C69.4253 18.22 70.1353 17.35 71.0353 16.85C71.9553 16.35 72.9253 16.1 73.9453 16.1Z" fill="white"/>
</svg>
