<svg width="789" height="133" viewBox="0 0 789 133" fill="none" xmlns="http://www.w3.org/2000/svg">
<path d="M779.829 46.8186C777.126 44.2442 774.938 42.4421 772.686 40.3826L766.25 34.6545C757.497 27.2531 749.452 20.6884 742.501 15.3465C728.599 4.85582 719.074 -0.807801 717.143 0.929919C715.212 2.66764 721.391 11.4206 732.847 24.2926C738.575 30.7286 745.719 38.13 753.635 46.175L763.804 56.2151C742.822 54.22 697.513 52.611 601.166 52.4179C499.799 52.4179 349.39 54.3487 224.467 58.8539C161.973 60.9778 105.916 63.359 65.4333 65.8047C24.9508 68.2504 0.107762 70.3099 0.172122 71.8546C0.236482 73.3992 25.144 74.0428 65.6908 74.3003H224.789C349.711 74.3003 499.863 74.3003 601.102 74.3003C700.152 74.3003 745.139 73.9142 765.413 72.1765C763.739 74.3004 761.744 76.553 759.749 78.6125C755.823 83.0533 751.897 87.2366 748.036 91.1626C740.377 98.9501 733.04 105.708 726.668 111.243C713.796 122.377 705.622 129.199 707.038 131.388C708.454 133.576 719.46 130.358 735.099 121.154C744.217 115.782 752.833 109.6 760.843 102.683C765.348 98.8215 769.854 94.5737 774.295 89.8111C776.547 87.4297 778.607 85.2415 780.731 82.4097C783.442 79.293 785.616 75.7479 787.167 71.919C788.94 67.122 788.94 61.8488 787.167 57.0518C785.505 53.0302 783.003 49.4098 779.829 46.4325" fill="white"/>
</svg>
