<svg width="56" height="56" viewBox="0 0 56 56" fill="none" xmlns="http://www.w3.org/2000/svg">
<rect width="56" height="56" rx="10" fill="#EDEDED"/>
<path d="M37.1105 12H37.1278C38.7581 12 40.2332 12.6641 41.2971 13.7363L41.2974 13.7367C42.3636 14.8065 43.0227 16.282 43.0227 17.9115C43.0227 19.548 42.3578 21.0293 41.2832 22.1003L41.2831 22.1005L21.6438 41.7592L12 43.0213L13.2627 33.3826L32.9321 13.7525C33.9982 12.675 35.4756 12.0059 37.1094 12L37.1105 12ZM20.6395 39.7199L39.7651 20.576C40.4475 19.8988 40.8703 18.961 40.8713 17.9245V17.9243V17.9207C40.8713 16.8811 40.4521 15.9394 39.7734 15.2552L39.7737 15.2554C39.0973 14.5729 38.1593 14.1502 37.1227 14.1502C36.0825 14.1502 35.1417 14.5758 34.465 15.2621L34.4574 15.2698L15.3031 34.3865L14.4982 40.5245L20.6395 39.7199ZM37.0832 24.7779L30.2532 17.9516L31.7742 16.4314L38.6042 23.2578L37.0832 24.7779ZM12 43.0227L13.3746 32.5307L14.5583 32.8448C16.4437 33.3552 18.061 34.3194 19.3443 35.6146L19.3451 35.6155C20.6732 36.9058 21.6607 38.5394 22.1645 40.3731L22.1818 40.447L22.499 41.6301L12 43.0227ZM15.1783 35.3301L14.4981 40.5216L19.6924 39.8318C19.2334 38.7883 18.6093 37.899 17.8434 37.1548L17.8414 37.1529L17.8242 37.1357C17.0849 36.3884 16.2071 35.7798 15.2321 35.3512L15.1783 35.3301ZM19.4055 37.14L17.8845 35.6198L33.6682 19.8446L35.1892 21.3648L19.4055 37.14Z" fill="black"/>
</svg>
