<svg width="56" height="56" viewBox="0 0 56 56" fill="none" xmlns="http://www.w3.org/2000/svg">
<rect width="56" height="56" rx="10" fill="#EDEDED"/>
<path d="M16.5044 38.8954C16.5044 39.8735 16.8852 40.8115 17.5629 41.5031C18.2407 42.1948 19.16 42.5833 20.1185 42.5833C21.0771 42.5833 21.9963 42.1948 22.6741 41.5031C23.3519 40.8115 23.7327 39.8735 23.7327 38.8954C23.7327 37.9173 23.3519 36.9793 22.6741 36.2877C21.9963 35.5961 21.0771 35.2075 20.1185 35.2075C19.16 35.2075 18.2407 35.5961 17.5629 36.2877C16.8852 36.9793 16.5044 37.9173 16.5044 38.8954ZM34.575 38.8954C34.575 39.8735 34.9558 40.8115 35.6336 41.5031C36.3114 42.1948 37.2306 42.5833 38.1892 42.5833C39.1477 42.5833 40.067 42.1948 40.7448 41.5031C41.4225 40.8115 41.8033 39.8735 41.8033 38.8954C41.8033 37.9173 41.4225 36.9793 40.7448 36.2877C40.067 35.5961 39.1477 35.2075 38.1892 35.2075C37.2306 35.2075 36.3114 35.5961 35.6336 36.2877C34.9558 36.9793 34.575 37.9173 34.575 38.8954Z" fill="white" stroke="black" stroke-width="2" stroke-linecap="round" stroke-linejoin="round"/>
<path d="M16.5044 38.8955H12.8903V31.5197M11.0833 16.7681H30.961V38.8955M23.7327 38.8955H34.5751H23.7327ZM41.8034 38.8955H45.4175V27.8318H30.961M30.961 18.6121H39.9963L45.4175 27.8318M12.8903 24.1439H20.1186H12.8903Z" fill="white"/>
<path d="M16.5044 38.8955H12.8903V31.5197M11.0833 16.7681H30.961V38.8955M23.7327 38.8955H34.5751M41.8034 38.8955H45.4175V27.8318M45.4175 27.8318H30.961M45.4175 27.8318L39.9963 18.6121H30.961M12.8903 24.1439H20.1186" stroke="black" stroke-width="2" stroke-linecap="round" stroke-linejoin="round"/>
</svg>
